<?xml version="1.0" encoding="iso-8859-1"?>
<!-- Generator: Adobe Illustrator 19.0.0, SVG Export Plug-In . SVG Version: 6.00 Build 0)  -->
<svg version="1.1" id="Layer_1" xmlns="http://www.w3.org/2000/svg" xmlns:xlink="http://www.w3.org/1999/xlink" x="0px" y="0px"
	 viewBox="0 0 512 512" width="40" height="40" fill="navy" style="enable-background:new 0 0 512 512;" xml:space="preserve">
<g>
	<g>
		<path d="M512,317.217c0-27.618-22.469-50.087-50.087-50.087h-39.631c-4.836-61.762-36.253-119.51-86.151-156.941
			c-13.753-10.297-31.122-12.437-46.27-7.276c6.733-10.425,10.661-22.824,10.661-36.131C300.522,29.959,270.563,0,233.739,0
			s-66.783,29.959-66.783,66.783c0,36.824,29.959,66.783,66.783,66.783c9.886,0,19.268-2.176,27.718-6.048l-26.088,52.201
			l-51.858,25.914c-11.969,5.985-20.891,16.27-25.121,28.962c-4.199,12.6-3.272,26.075,2.597,37.98
			c-16.256,8.287-27.422,25.18-27.422,44.643v16.696h-8.984c5.702-9.831,8.984-21.231,8.984-33.391
			c0-36.824-29.959-66.783-66.783-66.783C29.959,233.739,0,263.698,0,300.522c0,17.457,6.741,33.365,17.746,45.275
			C6.902,354.992,0,368.701,0,384c0,21.766,13.959,40.323,33.391,47.215v64.089c0,9.22,7.475,16.696,16.696,16.696
			s16.696-7.475,16.696-16.696v-61.217h36.264c-8.318,23.471,1.981,50.082,24.813,61.498c24.142,12.071,54.507,2.992,67.203-22.401
			l19.548-39.097h108.171v27.826c0,27.618,22.469,50.087,50.087,50.087s50.087-22.469,50.087-50.087v-27.826h22.261v61.217
			c0,9.22,7.475,16.696,16.696,16.696s16.696-7.475,16.696-16.696v-64.089C498.041,424.323,512,405.766,512,384
			c0-12.817-4.838-24.524-12.784-33.391C507.162,341.741,512,330.034,512,317.217z M233.739,100.174
			c-18.412,0-33.391-14.979-33.391-33.391c0-18.412,14.979-33.391,33.391-33.391s33.391,14.979,33.391,33.391
			C267.13,85.195,252.151,100.174,233.739,100.174z M190.069,245.153c1.41-4.231,4.384-7.659,8.372-9.653l56.836-28.403
			c3.233-1.616,5.856-4.239,7.472-7.472l28.331-56.696c0.02-0.039,0.04-0.077,0.059-0.116c4.714-9.394,16.703-12.089,24.966-5.904
			c41.521,31.147,67.93,78.931,72.68,130.221h-33.548c-2.78-24.92-11.77-48.723-26.426-69.643
			c-7.309-10.615-23.188-9.141-28.715,2.096l-12.464,24.929c-1.605,3.21-4.257,5.862-7.467,7.467l-66.783,33.391
			c-2.335,1.168-4.836,1.76-7.436,1.76c-6.388,0-12.123-3.536-14.969-9.227C188.981,253.912,188.659,249.384,190.069,245.153z
			 M321.528,267.13h-37l10.568-5.285c8.332-4.166,15.407-10.687,20.283-18.606C318.255,250.98,320.324,259.001,321.528,267.13z
			 M66.783,267.13c18.412,0,33.391,14.979,33.391,33.391c0,18.412-14.979,33.391-33.391,33.391
			c-18.412,0-33.391-14.979-33.391-33.391C33.391,282.11,48.371,267.13,66.783,267.13z M119.305,400.696H50.087
			c-9.206,0-16.696-7.49-16.696-16.696s7.49-16.696,16.696-16.696h83.478v4.878L119.305,400.696z M389.565,461.913
			c0,9.206-7.49,16.696-16.696,16.696s-16.696-7.49-16.696-16.696v-27.826h33.391V461.913z M461.913,400.696h-231.05
			c1.885-5.349,2.876-11.023,2.876-16.696v-16.696h228.174c9.206,0,16.696,7.49,16.696,16.696S471.119,400.696,461.913,400.696z
			 M461.913,333.913h-244.87c-9.22,0-16.696,7.475-16.696,16.696V384c0,2.584-0.608,5.167-1.76,7.469l-33.391,66.783
			c-4.203,8.406-14.309,11.516-22.404,7.467c-8.258-4.128-11.598-14.143-7.469-22.403l29.87-59.723
			c1.16-2.318,1.763-4.875,1.763-7.467v-58.908c0-9.206,7.49-16.696,16.696-16.696h278.261c9.206,0,16.696,7.49,16.696,16.696
			C478.609,326.423,471.119,333.913,461.913,333.913z"/>
	</g>
</g>
<g>
</g>
<g>
</g>
<g>
</g>
<g>
</g>
<g>
</g>
<g>
</g>
<g>
</g>
<g>
</g>
<g>
</g>
<g>
</g>
<g>
</g>
<g>
</g>
<g>
</g>
<g>
</g>
<g>
</g>
</svg>
